<?xml version="1.0" standalone="no"?>
<!DOCTYPE svg PUBLIC "-//W3C//DTD SVG 20010904//EN"
 "http://www.w3.org/TR/2001/REC-SVG-20010904/DTD/svg10.dtd">
<svg version="1.0" xmlns="http://www.w3.org/2000/svg"
 width="980.000000pt" height="980.000000pt" viewBox="0 0 980.000000 980.000000"
 preserveAspectRatio="xMidYMid meet">

<g transform="translate(0.000000,980.000000) scale(0.100000,-0.100000)"
fill="#000000" stroke="none">
<path d="M4630 9400 c-611 -53 -1147 -203 -1685 -472 -88 -44 -164 -84 -170
-88 -5 -4 -37 -23 -70 -41 -33 -18 -118 -70 -188 -116 -637 -414 -1173 -996
-1518 -1648 -286 -539 -442 -1048 -515 -1680 -25 -212 -25 -701 -1 -915 124
-1102 617 -2097 1400 -2825 65 -60 126 -117 135 -126 9 -9 82 -68 162 -131
661 -525 1453 -847 2320 -944 195 -22 583 -29 780 -15 523 38 1005 155 1475
359 136 58 365 169 365 176 0 2 -72 -21 -159 -50 -691 -231 -1432 -272 -2149
-118 -492 105 -948 293 -1367 562 -473 304 -919 749 -1217 1212 -295 459 -484
924 -588 1444 -224 1125 41 2311 721 3232 255 345 614 696 954 930 581 402
1203 637 1909 721 202 24 687 24 886 0 585 -72 1124 -246 1586 -513 209 -120
420 -264 574 -393 l55 -46 -75 84 c-168 188 -474 449 -730 623 -626 425 -1289
671 -2060 764 -159 19 -669 27 -830 14z"/>
<path d="M3509 7803 c-13 -16 -12 -17 4 -4 9 7 17 15 17 17 0 8 -8 3 -21 -13z"/>
<path d="M3029 7403 c-13 -16 -12 -17 4 -4 16 13 21 21 13 21 -2 0 -10 -8 -17
-17z"/>
<path d="M2949 7323 c-13 -16 -12 -17 4 -4 9 7 17 15 17 17 0 8 -8 3 -21 -13z"/>
<path d="M7227 7109 c7 -7 15 -10 18 -7 3 3 -2 9 -12 12 -14 6 -15 5 -6 -5z"/>
<path d="M2625 6934 c-9 -15 -12 -23 -6 -20 11 7 35 46 28 46 -3 0 -12 -12
-22 -26z"/>
<path d="M3545 6514 c-396 -58 -696 -226 -935 -522 -146 -181 -240 -395 -297
-677 -25 -125 -25 -432 0 -560 36 -184 99 -369 178 -527 l39 -78 709 0 c428 0
720 4 735 10 14 5 62 58 111 124 55 73 97 118 116 126 43 18 117 7 144 -21 12
-13 53 -108 91 -211 38 -104 71 -183 72 -178 2 6 48 316 101 691 73 506 102
684 113 696 24 23 99 28 136 9 37 -19 35 -9 62 -291 68 -716 94 -997 115
-1220 9 -93 22 -233 30 -310 8 -77 15 -158 15 -179 0 -102 22 16 85 459 37
264 70 485 72 492 9 24 53 43 98 43 71 0 100 -20 125 -87 53 -143 110 -302
110 -310 0 -5 6 -17 13 -27 12 -17 20 -10 90 77 86 106 120 127 213 127 71 0
104 -15 187 -84 38 -31 79 -56 91 -56 12 0 67 18 122 39 220 86 180 81 699 81
l462 0 45 93 c88 180 153 382 179 558 18 120 16 384 -5 496 -78 430 -295 779
-618 990 -53 35 -134 81 -180 102 -486 224 -1098 157 -1538 -168 -102 -75
-235 -213 -290 -299 -25 -39 -48 -71 -51 -71 -3 -1 -28 32 -55 72 -66 97 -206
241 -301 309 -100 72 -264 158 -375 197 -166 58 -314 83 -508 86 -96 2 -188 1
-205 -1z m25 -606 c25 -6 83 -28 129 -50 270 -128 408 -461 308 -746 -131
-374 -562 -529 -908 -325 -193 112 -316 354 -293 573 39 382 391 634 764 548z"/>
<path d="M3290 5824 c-158 -42 -297 -163 -359 -312 -114 -274 33 -603 314
-703 76 -26 214 -36 286 -19 149 34 289 139 356 266 142 268 37 601 -230 728
-120 57 -250 71 -367 40z m254 -130 c13 -5 16 -26 16 -125 l0 -118 128 -3 127
-3 3 -129 c2 -97 -1 -131 -10 -138 -7 -4 -66 -8 -130 -8 l-117 0 -3 -122 -3
-123 -135 0 -135 0 -3 123 -3 122 -117 0 c-79 0 -122 4 -130 12 -17 17 -17
239 0 256 8 8 52 12 130 12 l118 0 0 119 c0 86 3 121 13 124 18 8 232 8 251 1z"/>
<path d="M2406 6413 c-6 -14 -5 -15 5 -6 7 7 10 15 7 18 -3 3 -9 -2 -12 -12z"/>
<path d="M4781 4721 c-3 -40 -142 -999 -147 -1014 -12 -39 -104 -60 -158 -36
-29 14 -36 30 -146 324 -45 121 -84 224 -87 228 -3 4 -27 -21 -53 -57 -27 -35
-63 -74 -79 -85 -72 -52 -63 -51 -807 -51 -382 0 -694 -2 -694 -5 0 -26 86
-153 204 -300 91 -114 368 -394 501 -506 126 -106 367 -302 467 -379 385 -298
696 -564 837 -718 155 -168 280 -351 337 -492 14 -36 28 -67 30 -69 2 -2 13
18 24 45 40 91 54 119 102 197 84 137 159 228 313 382 176 177 304 286 670
574 618 487 858 705 1100 1004 52 65 175 247 175 259 0 5 -190 7 -422 6 l-423
-3 -148 -58 c-215 -84 -282 -80 -412 23 -41 33 -79 60 -84 60 -4 0 -59 -63
-121 -140 -62 -77 -122 -146 -134 -152 -30 -16 -98 -14 -126 5 -19 12 -38 53
-79 169 -30 83 -56 148 -58 143 -1 -6 -34 -235 -73 -510 -94 -664 -120 -843
-126 -859 -18 -48 -160 -46 -179 3 -4 9 -17 131 -31 271 -62 641 -125 1304
-144 1505 -20 214 -26 267 -29 236z"/>
</g>
</svg>
